<?xml version="1.0" encoding="utf-8"?>
<!-- Generator: Adobe Illustrator 19.2.1, SVG Export Plug-In . SVG Version: 6.00 Build 0)  -->
<svg version="1.1" id="Laag_1" xmlns="http://www.w3.org/2000/svg" xmlns:xlink="http://www.w3.org/1999/xlink" x="0px" y="0px"
	 viewBox="0 0 77.3 71.5" style="enable-background:new 0 0 77.3 71.5;" xml:space="preserve">
<g transform="matrix( 1, 0, 0, 1, 0,0) ">
	<g>
		<g id="a">
			<path d="M72.9,63.4c0-0.1-0.1-0.2-0.1-0.3L51.9,40.7c3.2-4.3,4.8-9.3,4.8-15c0-7.1-2.5-13.2-7.6-18.2c-5-5-11-7.5-18.1-7.5
				c-7.1,0-13.2,2.5-18.2,7.5c-5,5.1-7.5,11.1-7.5,18.2c0,7.1,2.5,13.2,7.5,18.2c5.1,5.1,11.1,7.6,18.2,7.6c4.7,0,8.9-1.1,12.8-3.3
				l21.7,23c0.1,0.1,0.2,0.2,0.2,0.2c0.1,0,0.2,0.1,0.3,0.1c3-0.1,5.1-0.9,6.2-2.2C73.4,67.9,73.6,66,72.9,63.4 M41,15.6
				c2.8,2.8,4.2,6.2,4.2,10.1c0,3.9-1.4,7.3-4.2,10c-2.8,2.8-6.1,4.2-10,4.2c-3.9,0-7.3-1.4-10.1-4.2c-2.8-2.8-4.2-6.1-4.1-10
				c0-3.9,1.4-7.3,4.1-10.1c2.8-2.8,6.2-4.2,10.1-4.1C34.8,11.5,38.2,12.9,41,15.6z"/>
		</g>
	</g>
</g>
</svg>
